<svg id="Capa_1" enable-background="new 0 0 512.147 512.147" height="512" viewBox="0 0 512.147 512.147" width="512" xmlns="http://www.w3.org/2000/svg"><g><g><path d="m43.981 160.053-36.485 4.451v257.88c0 6.4 2.54 12.19 6.68 16.44l169.455-66.343 92.912-134.019z" fill="#fbe88c"/><g><g id="XMLID_130_"><g><path d="m419.326 160.053-136.701 80.119-38.179-.022 24.75 95.075 83.671 89.028 92.919 14.69c4.19-4.26 6.78-10.1 6.78-16.56v-257.88z" fill="#fbe88c"/><path d="m50.825 371.757v-209.396l-6.844-2.307-36.485 4.451v257.88c0 6.4 2.54 12.19 6.68 16.44l68.541-26.834c-18.276-4.272-31.892-20.658-31.892-40.234z" fill="#fbe372"/><path d="m342.37 413.085 10.497 11.169 92.919 14.69c4.19-4.26 6.78-10.1 6.78-16.56v-9.299z" fill="#fbe372"/><path d="m269.196 293.444s-18.84-28.179-20.709-30.047c-1.868-1.869-31.047 0-31.047 0l-26.565 30.047h-.01l-176.69 145.38c4.28 4.43 10.29 7.17 16.93 7.17h397.85c6.58 0 12.54-2.7 16.83-7.05z" fill="#fcf0b6"/><path d="m376.86 184.942c15.428 17.94 38.265 29.335 63.727 29.335 4.068 0 8.064-.306 11.979-.868v-48.905l-33.24-4.451z" fill="#fbe372"/><g fill="#fdf5cb"><path d="m452.566 164.504-183.37 128.94-13.95 9.81c-15.13 10.63-35.3 10.63-50.43 0l-13.94-9.81h-.01l-183.37-128.94c0-13.04 10.57-23.6 23.61-23.6h397.85c13.04 0 23.61 10.56 23.61 23.6z"/><path d="m452.566 164.504-183.37 128.94-13.95 9.81c-15.13 10.63-35.3 10.63-50.43 0l-13.94-9.81h-.01l-183.37-128.94c0-13.04 10.57-23.6 23.61-23.6h397.85c13.04 0 23.61 10.56 23.61 23.6z"/></g></g></g><path d="m428.956 140.904h-71.726c3.363 26.367 18.975 48.948 40.947 61.845l54.39-38.245c-.001-13.04-10.571-23.6-23.611-23.6z" fill="#fcf0b6"/><circle cx="440.587" cy="130.216" fill="#e5827f" r="64.06"/><path d="m406.788 125.438c0-26.55 16.164-49.34 39.176-59.056-1.771-.147-3.568-.227-5.377-.227-35.38 0-64.061 28.681-64.061 64.06s28.681 64.06 64.061 64.06c8.83 0 17.242-1.787 24.896-5.019-32.866-2.726-58.695-30.247-58.695-63.818z" fill="#de6a66"/></g><path d="m92.153 413.085c-12.045 0-22.883-5.156-30.437-13.377l-47.541 39.116c4.28 4.43 10.29 7.17 16.93 7.17h397.85c6.58 0 12.54-2.7 16.83-7.05l-31.385-25.859z" fill="#fbe88c"/><path d="m50.825 140.904h-19.719c-13.04 0-23.61 10.56-23.61 23.6l43.329 30.467z" fill="#fcf0b6"/></g><g><path d="m452.561 216.018c-4.143 0-7.5 3.358-7.5 7.5v198.87c0 1.872-.337 3.662-.927 5.335l-162.57-133.809 112.023-78.772c3.388-2.383 4.203-7.061 1.82-10.449-2.381-3.388-7.058-4.203-10.449-1.821l-134.025 94.244c-12.5 8.791-29.299 8.792-41.803 0l-193.71-136.213c1.641-7.15 8.042-12.503 15.683-12.503h57.09c4.143 0 7.5-3.358 7.5-7.5s-3.357-7.5-7.5-7.5h-57.09c-17.077 0-30.98 13.835-31.098 30.886-.001.041-.002.083-.003.124 0 .031-.002.062-.002.093v257.885c0 17.15 13.953 31.104 31.104 31.104h299.405c4.143 0 7.5-3.358 7.5-7.5s-3.357-7.5-7.5-7.5h-299.405c-1.387 0-2.727-.195-4.012-.526l164.137-135.099 9.272 6.52c8.832 6.21 19.182 9.315 29.53 9.315 10.35 0 20.699-3.105 29.53-9.315l9.273-6.521 164.139 135.1c-1.286.332-2.626.527-4.015.527h-66.487c-4.143 0-7.5 3.358-7.5 7.5s3.357 7.5 7.5 7.5h66.487c17.15 0 31.103-13.953 31.103-31.104v-198.87c0-4.143-3.358-7.501-7.5-7.501zm-436.633 211.707c-.59-1.673-.928-3.464-.928-5.337v-243.442l163.499 114.969z"/><path d="m120.155 148.4h226.981c4.143 0 7.5-3.358 7.5-7.5s-3.357-7.5-7.5-7.5h-226.981c-4.143 0-7.5 3.358-7.5 7.5s3.358 7.5 7.5 7.5z"/><path d="m506.272 101.809c-1.646-3.802-6.062-5.547-9.863-3.901s-5.547 6.062-3.9 9.863c3.078 7.106 4.639 14.658 4.639 22.445 0 31.188-25.373 56.561-56.561 56.561s-56.561-25.373-56.561-56.561 25.373-56.56 56.561-56.56c12.499 0 24.352 4.003 34.274 11.578 3.295 2.513 7.999 1.881 10.513-1.412 2.513-3.292 1.881-7.999-1.411-10.512-12.561-9.587-27.56-14.654-43.376-14.654-39.459 0-71.561 32.102-71.561 71.56s32.102 71.561 71.561 71.561 71.561-32.102 71.561-71.561c-.001-9.851-1.977-19.408-5.876-28.407z"/></g></g></svg>